<svg width="56" height="36" viewBox="0 0 56 36" fill="none" xmlns="http://www.w3.org/2000/svg">
<path fill-rule="evenodd" clip-rule="evenodd" d="M21.2214 23.4665C21.3829 23.9206 21.8452 24.1949 22.3212 24.119L35.0874 22.0828C35.5004 22.017 35.8288 21.701 35.9106 21.2909L37.2654 14.4986C37.3875 13.8864 36.925 13.3132 36.3008 13.3032L18.9412 13.0232C18.2435 13.012 17.7491 13.7007 17.9829 14.3581L21.2214 23.4665Z" fill="white"/>
<path fill-rule="evenodd" clip-rule="evenodd" d="M21.8262 31.3593C23.1109 31.3593 24.1523 30.3178 24.1523 29.0331C24.1523 27.7484 23.1109 26.707 21.8262 26.707C20.5415 26.707 19.5 27.7484 19.5 29.0331C19.5 30.3178 20.5415 31.3593 21.8262 31.3593Z" fill="white"/>
<path fill-rule="evenodd" clip-rule="evenodd" d="M33.457 31.3593C34.7417 31.3593 35.7831 30.3178 35.7831 29.0331C35.7831 27.7484 34.7417 26.707 33.457 26.707C32.1723 26.707 31.1308 27.7484 31.1308 29.0331C31.1308 30.3178 32.1723 31.3593 33.457 31.3593Z" fill="white"/>
<path fill-rule="evenodd" clip-rule="evenodd" d="M15 10C16.933 10 18.5 9.77614 18.5 9.5C18.5 9.22386 16.933 9 15 9C13.067 9 11.5 9.22386 11.5 9.5C11.5 9.77614 13.067 10 15 10Z" fill="white"/>
<path fill-rule="evenodd" clip-rule="evenodd" d="M12.4544 8.65147C13.1177 8.55672 14.0175 8.5 15 8.5C15.9825 8.5 16.8823 8.55672 17.5456 8.65147C17.8735 8.69831 18.1649 8.75734 18.3849 8.83167C18.4917 8.86772 18.6118 8.91717 18.7151 8.98926C18.8002 9.04864 19 9.21275 19 9.5C19 9.78725 18.8002 9.95136 18.7151 10.0107C18.6118 10.0828 18.4917 10.1323 18.3849 10.1683C18.1649 10.2427 17.8735 10.3017 17.5456 10.3485C16.8823 10.4433 15.9825 10.5 15 10.5C14.0175 10.5 13.1177 10.4433 12.4544 10.3485C12.1265 10.3017 11.8351 10.2427 11.6151 10.1683C11.5083 10.1323 11.3882 10.0828 11.2849 10.0107C11.1998 9.95136 11 9.78725 11 9.5C11 9.21275 11.1998 9.04864 11.2849 8.98926C11.3882 8.91717 11.5083 8.86772 11.6151 8.83167C11.8351 8.75734 12.1265 8.69831 12.4544 8.65147Z" fill="white"/>
<rect width="16" height="16" rx="8" transform="matrix(1 0.000825538 -0.00128991 0.999999 32 1.5)" fill="#F55123"/>
<path d="M37.6598 12.275L37.6615 10.9322C38.1298 11.2744 38.6765 11.4457 39.3015 11.4462C39.6954 11.4466 40.0015 11.3622 40.2198 11.1931C40.4414 11.024 40.5523 10.7881 40.5527 10.4854C40.5531 10.1729 40.4167 9.93186 40.1435 9.76236C39.8735 9.59287 39.5009 9.50792 39.0257 9.50753L38.3763 9.50699L38.3778 8.32535L38.9784 8.32585C39.8898 8.3266 40.3459 8.02424 40.3467 7.41878C40.3475 6.84912 39.9979 6.564 39.298 6.56342C38.8293 6.56303 38.3733 6.71402 37.9303 7.01639L37.9319 5.75663C38.4237 5.50964 38.9968 5.38641 39.6511 5.38695C40.3672 5.38754 40.9237 5.54914 41.3204 5.87173C41.7204 6.19432 41.92 6.61278 41.9194 7.12711C41.9182 8.04182 41.4536 8.61435 40.5256 8.84471L40.5255 8.86912C41.0202 8.93138 41.4106 9.11236 41.6967 9.41208C41.9828 9.70854 42.1255 10.0732 42.125 10.5062C42.1241 11.1605 41.8842 11.6779 41.4052 12.0583C40.9262 12.4388 40.2651 12.6287 39.422 12.628C38.6994 12.6274 38.112 12.5097 37.6598 12.275Z" fill="white"/>
</svg>
